<svg width="149" height="32" viewBox="0 0 149 32" fill="none" xmlns="http://www.w3.org/2000/svg">
<path d="M22.7996 10.4015C22.7996 8.17328 21.9145 6.03632 20.3389 4.46074C18.7633 2.88515 16.6263 2 14.3981 2C12.1699 2 10.033 2.88515 8.45738 4.46074C6.8818 6.03632 5.99664 8.17328 5.99664 10.4015C5.99664 20.2032 1.7959 23.0037 1.7959 23.0037H27.0004C27.0004 23.0037 22.7996 20.2032 22.7996 10.4015Z" stroke="white" stroke-width="2.2" stroke-linecap="round" stroke-linejoin="round"/>
<path d="M16.8195 28.6047C16.5733 29.0291 16.2199 29.3814 15.7948 29.6263C15.3697 29.8711 14.8877 30 14.397 30C13.9064 30 13.4244 29.8711 12.9993 29.6263C12.5741 29.3814 12.2208 29.0291 11.9746 28.6047" stroke="white" stroke-width="2.2" stroke-linecap="round" stroke-linejoin="round"/>
<circle cx="21.5" cy="9.5" r="4.25" fill="#FF2D2D" stroke="#006BFF" stroke-width="1.5"/>
<path d="M72.9998 19.8182C75.1085 19.8182 76.818 18.1087 76.818 16C76.818 13.8913 75.1085 12.1818 72.9998 12.1818C70.8911 12.1818 69.1816 13.8913 69.1816 16C69.1816 18.1087 70.8911 19.8182 72.9998 19.8182Z" stroke="white" stroke-width="2" stroke-linecap="round" stroke-linejoin="round"/>
<path d="M82.4182 19.8182C82.2488 20.2021 82.1982 20.6279 82.2731 21.0407C82.3479 21.4536 82.5448 21.8346 82.8382 22.1345L82.9145 22.2109C83.1512 22.4473 83.339 22.728 83.4671 23.0371C83.5952 23.3461 83.6611 23.6773 83.6611 24.0118C83.6611 24.3463 83.5952 24.6776 83.4671 24.9866C83.339 25.2956 83.1512 25.5763 82.9145 25.8127C82.6781 26.0494 82.3974 26.2371 82.0884 26.3652C81.7794 26.4933 81.4481 26.5593 81.1136 26.5593C80.7791 26.5593 80.4479 26.4933 80.1389 26.3652C79.8299 26.2371 79.5491 26.0494 79.3127 25.8127L79.2364 25.7364C78.9364 25.443 78.5554 25.2461 78.1426 25.1713C77.7297 25.0964 77.3039 25.1469 76.92 25.3164C76.5436 25.4777 76.2225 25.7456 75.9964 26.087C75.7703 26.4285 75.6489 26.8286 75.6473 27.2382V27.4545C75.6473 28.1296 75.3791 28.7771 74.9017 29.2545C74.4244 29.7318 73.7769 30 73.1018 30C72.4267 30 71.7793 29.7318 71.3019 29.2545C70.8245 28.7771 70.5564 28.1296 70.5564 27.4545V27.34C70.5465 26.9187 70.4102 26.5102 70.165 26.1674C69.9199 25.8247 69.5773 25.5636 69.1818 25.4182C68.7979 25.2488 68.3721 25.1982 67.9593 25.2731C67.5464 25.3479 67.1654 25.5448 66.8655 25.8382L66.7891 25.9145C66.5527 26.1512 66.272 26.339 65.9629 26.4671C65.6539 26.5952 65.3227 26.6611 64.9882 26.6611C64.6537 26.6611 64.3224 26.5952 64.0134 26.4671C63.7044 26.339 63.4237 26.1512 63.1873 25.9145C62.9506 25.6781 62.7629 25.3974 62.6348 25.0884C62.5067 24.7794 62.4407 24.4481 62.4407 24.1136C62.4407 23.7791 62.5067 23.4479 62.6348 23.1389C62.7629 22.8299 62.9506 22.5491 63.1873 22.3127L63.2636 22.2364C63.557 21.9364 63.7539 21.5554 63.8287 21.1426C63.9036 20.7297 63.8531 20.3039 63.6836 19.92C63.5223 19.5436 63.2544 19.2225 62.913 18.9964C62.5715 18.7703 62.1714 18.6489 61.7618 18.6473H61.5455C60.8704 18.6473 60.2229 18.3791 59.7455 17.9017C59.2682 17.4244 59 16.7769 59 16.1018C59 15.4267 59.2682 14.7793 59.7455 14.3019C60.2229 13.8245 60.8704 13.5564 61.5455 13.5564H61.66C62.0813 13.5465 62.4898 13.4102 62.8326 13.165C63.1753 12.9199 63.4364 12.5773 63.5818 12.1818C63.7512 11.7979 63.8018 11.3721 63.7269 10.9593C63.6521 10.5464 63.4552 10.1654 63.1618 9.86545L63.0855 9.78909C62.8488 9.55269 62.661 9.27195 62.5329 8.96294C62.4048 8.65393 62.3389 8.32269 62.3389 7.98818C62.3389 7.65367 62.4048 7.32244 62.5329 7.01342C62.661 6.70441 62.8488 6.42368 63.0855 6.18727C63.3219 5.95061 63.6026 5.76286 63.9116 5.63476C64.2206 5.50666 64.5519 5.44072 64.8864 5.44072C65.2209 5.44072 65.5521 5.50666 65.8611 5.63476C66.1701 5.76286 66.4509 5.95061 66.6873 6.18727L66.7636 6.26364C67.0636 6.55705 67.4446 6.75387 67.8574 6.82873C68.2703 6.90359 68.6961 6.85306 69.08 6.68364H69.1818C69.5583 6.5223 69.8793 6.25442 70.1054 5.91296C70.3316 5.5715 70.4529 5.17136 70.4545 4.76182V4.54545C70.4545 3.87036 70.7227 3.22291 71.2001 2.74555C71.6775 2.26818 72.3249 2 73 2C73.6751 2 74.3225 2.26818 74.7999 2.74555C75.2773 3.22291 75.5455 3.87036 75.5455 4.54545V4.66C75.5471 5.06955 75.6684 5.46968 75.8946 5.81114C76.1207 6.1526 76.4417 6.42048 76.8182 6.58182C77.2021 6.75124 77.6279 6.80178 78.0407 6.72691C78.4536 6.65205 78.8346 6.45523 79.1345 6.16182L79.2109 6.08545C79.4473 5.84879 79.728 5.66104 80.0371 5.53294C80.3461 5.40484 80.6773 5.33891 81.0118 5.33891C81.3463 5.33891 81.6776 5.40484 81.9866 5.53294C82.2956 5.66104 82.5763 5.84879 82.8127 6.08545C83.0494 6.32186 83.2371 6.60259 83.3652 6.91161C83.4933 7.22062 83.5593 7.55185 83.5593 7.88636C83.5593 8.22088 83.4933 8.55211 83.3652 8.86112C83.2371 9.17013 83.0494 9.45087 82.8127 9.68727L82.7364 9.76364C82.443 10.0636 82.2461 10.4446 82.1713 10.8574C82.0964 11.2703 82.1469 11.6961 82.3164 12.08V12.1818C82.4777 12.5583 82.7456 12.8793 83.087 13.1054C83.4285 13.3316 83.8286 13.4529 84.2382 13.4545H84.4545C85.1296 13.4545 85.7771 13.7227 86.2545 14.2001C86.7318 14.6775 87 15.3249 87 16C87 16.6751 86.7318 17.3225 86.2545 17.7999C85.7771 18.2773 85.1296 18.5455 84.4545 18.5455H84.34C83.9305 18.5471 83.5303 18.6684 83.1889 18.8946C82.8474 19.1207 82.5795 19.4417 82.4182 19.8182Z" stroke="white" stroke-width="2" stroke-linecap="round" stroke-linejoin="round"/>
<path d="M133 30C140.732 30 147 23.732 147 16C147 8.26801 140.732 2 133 2C125.268 2 119 8.26801 119 16C119 23.732 125.268 30 133 30Z" stroke="white" stroke-width="2.4" stroke-linecap="round" stroke-linejoin="round"/>
<path d="M128.926 11.8C129.255 10.8643 129.905 10.0754 130.76 9.5728C131.615 9.07023 132.62 8.88652 133.598 9.05421C134.575 9.22189 135.462 9.73014 136.101 10.4889C136.74 11.2478 137.089 12.2081 137.088 13.2C137.088 16 132.888 17.4 132.888 17.4" stroke="white" stroke-width="2.4" stroke-linecap="round" stroke-linejoin="round"/>
<path d="M133 23H133.014" stroke="white" stroke-width="2.4" stroke-linecap="round" stroke-linejoin="round"/>
</svg>
