<?xml version="1.0" standalone="no"?>
<!DOCTYPE svg PUBLIC "-//W3C//DTD SVG 1.1//EN" "http://www.w3.org/Graphics/SVG/1.1/DTD/svg11.dtd" >
<svg xmlns="http://www.w3.org/2000/svg">
<metadata>Generated by IcoMoon</metadata>
<defs>
<font id="iconops" horiz-adv-x="1024">
<font-face units-per-em="1024" ascent="960" descent="-64" />
<missing-glyph horiz-adv-x="1024" />
<glyph unicode="&#x20;" horiz-adv-x="512" d="" />
<glyph unicode="&#xe900;" glyph-name="phone" d="M725.333 895.574l-426.667 0.427c-46.933 0-85.333-38.4-85.333-85.333v-768c0-46.933 38.4-85.333 85.333-85.333h426.667c46.933 0 85.333 38.4 85.333 85.333v768c0 46.933-38.4 84.907-85.333 84.907zM725.333 42.667h-426.667v42.667h426.667v-42.667zM725.333 170.667h-426.667v512h426.667v-512zM725.333 768h-426.667v42.667h426.667v-42.667z" />
<glyph unicode="&#xe902;" glyph-name="mail" d="M853.333 768h-682.667c-46.933 0-84.907-38.4-84.907-85.333l-0.427-512c0-46.933 38.4-85.333 85.333-85.333h682.667c46.933 0 85.333 38.4 85.333 85.333v512c0 46.933-38.4 85.333-85.333 85.333zM853.333 170.667h-682.667v426.667l341.333-213.333 341.333 213.333v-426.667zM512 469.334l-341.333 213.333h682.667l-341.333-213.333z" />
<glyph unicode="&#xe903;" glyph-name="payables" d="M512 896c-259.072 0-469.333-210.261-469.333-469.333s210.261-469.333 469.333-469.333c259.072 0 469.333 210.261 469.333 469.333s-210.261 469.333-469.333 469.333zM512 51.2c-206.976 0-375.467 168.491-375.467 375.467s168.491 375.467 375.467 375.467c206.976 0 375.467-168.491 375.467-375.467s-168.491-375.467-375.467-375.467zM526.549 467.030c-83.072 21.12-109.824 44.117-109.824 78.379 0 39.424 37.077 67.115 98.56 67.115 64.768 0 89.173-30.976 91.051-76.971h80.256c-2.347 62.891-40.832 120.619-116.864 139.392v80.256h-109.355v-79.317c-70.869-15.019-127.659-61.013-127.659-131.883 0-84.011 69.931-126.251 171.776-150.656 91.52-21.589 109.824-53.973 109.824-87.765 0-24.875-18.304-65.237-98.56-65.237-75.093 0-104.661 33.792-108.885 76.971h-80.725c4.693-79.787 63.829-124.843 134.229-139.392v-79.787h109.824v78.379c71.339 13.611 127.659 54.443 128.128 130.005-0.469 103.253-89.173 138.923-171.776 160.512z" />
<glyph unicode="&#xe904;" glyph-name="recievables" d="M571.17 802.134l226.688-226.688v-524.245h-563.2v750.933h336.512zM610.125 896h-375.467c-51.627 0-93.867-42.24-93.867-93.867v-750.933c0-51.627 42.24-93.867 93.867-93.867h563.2c51.627 0 93.867 42.24 93.867 93.867v563.2l-281.6 281.6zM657.058 473.6h-187.733v-46.933h140.8c25.813 0 46.933-21.12 46.933-46.933v-140.8c0-25.813-21.12-46.933-46.933-46.933h-46.933v-46.933h-93.867v46.933h-93.867v93.867h187.733v46.933h-140.8c-25.813 0-46.933 21.12-46.933 46.933v140.8c0 25.813 21.12 46.933 46.933 46.933h46.933v46.933h93.867v-46.933h93.867v-93.867z" />
<glyph unicode="&#xe905;" glyph-name="bank" d="M275.2 473.6h-93.867v-328.533h93.867v328.533zM556.8 473.6h-93.867v-328.533h93.867v328.533zM955.733 51.2h-891.733v-93.867h891.733v93.867zM838.4 473.6h-93.867v-328.533h93.867v328.533zM509.867 789.931l244.523-128.597h-489.045l244.523 128.597zM509.867 896l-445.867-234.667v-93.867h891.733v93.867l-445.867 234.667z" />
<glyph unicode="&#xe906;" glyph-name="delete" d="M85.333 684.798c0 21.6 17.511 39.111 39.111 39.111h774.401c21.598 0 39.108-17.51 39.108-39.111s-17.51-39.111-39.108-39.111h-774.401c-21.6 0-39.111 17.511-39.111 39.111zM425.577 817.778c-12.448 0-24.385-4.945-33.187-13.747s-13.746-20.739-13.746-33.187v-86.045c0-21.6-17.511-39.111-39.111-39.111s-39.111 17.511-39.111 39.111v86.045c0 33.193 13.186 65.027 36.657 88.498s55.305 36.657 88.498 36.657h172.090c33.19 0 65.028-13.186 88.499-36.657s36.655-55.305 36.655-88.498v-86.045c0-21.6-17.51-39.111-39.113-39.111-21.598 0-39.108 17.511-39.108 39.111v86.045c0 12.447-4.945 24.385-13.747 33.187s-20.74 13.747-33.186 13.747h-172.090zM210.465 723.912c21.6 0 39.111-17.511 39.111-39.111v-602.313c0-12.446 4.945-24.384 13.746-33.186s20.739-13.747 33.187-13.747h430.223c12.446 0 24.384 4.945 33.186 13.747s13.747 20.74 13.747 33.186v602.313c0 21.6 17.51 39.111 39.108 39.111 21.602 0 39.113-17.511 39.113-39.111v-602.313c0-33.19-13.184-65.024-36.655-88.495-23.471-23.475-55.309-36.659-88.499-36.659h-430.223c-33.193 0-65.027 13.184-88.498 36.659-23.471 23.471-36.657 55.305-36.657 88.495v602.313c0 21.6 17.511 39.111 39.111 39.111z" />
<glyph unicode="&#xe907;" glyph-name="edit" d="M619.362 582.068l47.979-47.976-472.464-472.464h-47.976v47.979l472.462 472.462zM807.095 896c-13.035 0-26.594-5.215-36.501-15.123l-95.433-95.431 195.554-195.555 95.433 95.431c20.339 20.338 20.339 53.191 0 73.529l-122.027 122.027c-10.432 10.429-23.467 15.123-37.026 15.123zM619.362 729.648l-576.758-576.76v-195.554h195.556l576.756 576.759-195.554 195.555z" />
<glyph unicode="&#xe908;" glyph-name="print" d="M168.958 891.734c0 25.921 21.013 46.933 46.933 46.933h506.882c25.92 0 46.933-21.013 46.933-46.933v-295.68c0-25.92-21.013-46.933-46.933-46.933-25.924 0-46.933 21.013-46.933 46.933v248.747h-413.015v-248.747c0-25.92-21.013-46.933-46.933-46.933s-46.933 21.013-46.933 46.933v295.68zM131.413 549.121c-9.958 0-19.508-3.956-26.549-10.997s-10.997-16.591-10.997-26.55v-211.2c0-9.958 3.956-19.507 10.997-26.547 7.041-7.044 16.591-10.999 26.549-10.999h84.48c25.92 0 46.933-21.013 46.933-46.933s-21.013-46.933-46.933-46.933h-84.48c-34.853 0-68.279 13.845-92.923 38.49s-38.49 58.069-38.49 92.924v211.2c0 34.853 13.845 68.279 38.49 92.924s58.070 38.49 92.923 38.49h675.84c34.854 0 68.279-13.845 92.924-38.49s38.49-58.071 38.49-92.924v-211.2c0-34.854-13.845-68.279-38.49-92.924s-58.069-38.49-92.924-38.49h-84.48c-25.92 0-46.933 21.013-46.933 46.933s21.013 46.933 46.933 46.933h84.48c9.958 0 19.507 3.955 26.551 10.999 7.040 7.040 10.995 16.589 10.995 26.547v211.2c0 9.958-3.955 19.508-10.995 26.55-7.044 7.041-16.593 10.997-26.551 10.997h-675.84zM168.958 384.854c0 25.92 21.013 46.933 46.933 46.933h506.882c25.92 0 46.933-21.013 46.933-46.933v-337.92c0-25.92-21.013-46.933-46.933-46.933h-506.882c-25.92 0-46.933 21.013-46.933 46.933v337.92zM262.825 337.92v-244.053h413.015v244.053h-413.015z" />
<glyph unicode="&#xe909;" glyph-name="download" d="M89.6 332.8c25.92 0 46.933-21.013 46.933-46.933v-187.733c0-12.446 4.945-24.384 13.746-33.186s20.739-13.747 33.187-13.747h657.067c12.446 0 24.384 4.945 33.186 13.747s13.747 20.74 13.747 33.186v187.733c0 25.92 21.013 46.933 46.933 46.933s46.933-21.013 46.933-46.933v-187.733c0-37.342-14.835-73.156-41.242-99.563-26.402-26.402-62.217-41.237-99.558-41.237h-657.067c-37.343 0-73.155 14.835-99.561 41.237-26.405 26.406-41.239 62.221-41.239 99.563v187.733c0 25.92 21.013 46.933 46.933 46.933zM244.142 553.72c18.329 18.328 48.045 18.328 66.374 0l201.48-201.481 201.481 201.481c18.33 18.328 48.043 18.328 66.372 0s18.33-48.047 0-66.373l-234.667-234.667c-18.33-18.33-48.043-18.33-66.372 0l-234.668 234.667c-18.328 18.325-18.328 48.044 0 66.373zM511.996 896c25.92 0 46.933-21.013 46.933-46.933v-563.2c0-25.92-21.013-46.933-46.933-46.933s-46.933 21.013-46.933 46.933v563.2c0 25.92 21.013 46.933 46.933 46.933z" />
<glyph unicode="&#xe90a;" glyph-name="calendar" d="M210.593 732.38c-25.942 0-46.973-21.030-46.973-46.973v-602.813c0-25.941 21.030-46.972 46.973-46.972h602.813c25.941 0 46.972 21.030 46.972 46.972v602.813c0 25.942-21.030 46.973-46.972 46.973h-602.813zM85.333 685.407c0 69.179 56.081 125.26 125.26 125.26h602.813c69.18 0 125.261-56.081 125.261-125.26v-602.813c0-69.18-56.081-125.261-125.261-125.261h-602.813c-69.179 0-125.26 56.081-125.26 125.261v602.813zM682.667 874.667c23.565 0 42.667-14.924 42.667-33.333v-146.667c0-18.409-19.102-33.333-42.667-33.333s-42.667 14.924-42.667 33.333v146.667c0 18.409 19.102 33.333 42.667 33.333zM341.333 874.667c23.564 0 42.667-14.924 42.667-33.333v-146.667c0-18.409-19.103-33.333-42.667-33.333s-42.667 14.924-42.667 33.333v146.667c0 18.409 19.103 33.333 42.667 33.333zM85.333 512c0 23.564 17.525 42.667 39.144 42.667h775.047c21.619 0 39.142-19.103 39.142-42.667s-17.523-42.667-39.142-42.667h-775.047c-21.618 0-39.144 19.102-39.144 42.667z" />
<glyph unicode="&#xe90b;" glyph-name="organisation" d="M118.415 286.016c34.841 35.418 82.096 55.317 131.369 55.317h311.099c49.271 0 96.529-19.9 131.371-55.317 34.837-35.418 54.413-83.46 54.413-133.547v-79.066c0-16.977-13.538-30.737-30.234-30.737-16.7 0-30.234 13.76-30.234 30.737v79.066c0 33.783-13.205 66.189-36.706 90.078-23.501 23.893-55.373 37.316-88.61 37.316h-311.099c-33.236 0-65.11-13.423-88.611-37.316-23.501-23.889-36.704-56.294-36.704-90.078v-79.066c0-16.977-13.536-30.737-30.234-30.737s-30.234 13.76-30.234 30.737v79.066c0 50.091 19.574 98.129 54.415 133.547zM384 748.175c-71.525 0-129.508-57.983-129.508-129.508s57.983-129.506 129.508-129.506c71.526 0 129.506 57.981 129.506 129.506s-57.98 129.508-129.506 129.508zM192 618.667c0 106.039 85.961 192 192 192s192-85.961 192-192c0-106.039-85.961-192-192-192s-192 85.961-192 192zM790.263 317.871c4.023 16.721 19.913 26.778 35.49 22.46 38.4-10.641 72.418-34.679 96.717-68.331s37.5-75.012 37.53-117.589v-80.469c0-17.271-13.043-31.275-29.129-31.275-16.090 0-29.133 14.003-29.133 31.275v80.422c0 0.004 0-0.004 0 0-0.021 28.715-8.926 56.623-25.31 79.317-16.393 22.699-39.339 38.912-65.242 46.093-15.578 4.318-24.943 21.372-20.924 38.097zM662.251 786.533c3.981 17.166 19.823 27.519 35.383 23.124 38.434-10.858 72.503-35.522 96.832-70.102s37.534-77.111 37.534-120.887c0-43.776-13.205-86.307-37.534-120.887s-58.398-59.243-96.832-70.101c-15.561-4.395-31.403 5.956-35.383 23.121-3.985 17.169 5.397 34.645 20.958 39.040 25.924 7.326 48.905 23.961 65.314 47.287s25.318 52.013 25.318 81.541c0 29.528-8.909 58.216-25.318 81.541s-39.39 39.961-65.314 47.285c-15.561 4.395-24.943 21.874-20.958 39.040z" />
<glyph unicode="&#xe90c;" glyph-name="collapse" d="M167.822 823.795c-15.088 0-29.558-6.339-40.227-17.623s-16.662-26.589-16.662-42.547v-673.913c0-15.962 5.994-31.266 16.662-42.547 10.669-11.285 25.139-17.626 40.227-17.626h182.045c18.851 0 34.133-16.162 34.133-36.1 0-19.942-15.282-36.105-34.133-36.105h-182.045c-33.193 0-65.027 13.948-88.498 38.771-23.471 24.828-36.657 58.496-36.657 93.606v673.913c0 35.108 13.186 68.779 36.657 93.604s55.305 38.772 88.498 38.772h182.045c18.851 0 34.133-16.164 34.133-36.102s-15.282-36.103-34.133-36.103h-182.045zM629.905 672.887c-13.457 13.040-35.277 13.040-48.734 0l-229.744-222.608c-13.458-13.039-13.458-34.185 0-47.223l229.744-222.609c13.457-13.039 35.277-13.039 48.734 0 13.461 13.039 13.461 34.185 0 47.223l-205.374 198.997 205.374 198.997c13.461 13.040 13.461 34.182 0 47.223zM981.333 426.667c0 23.565-14.857 42.667-33.186 42.667h-530.962c-18.328 0-33.185-19.102-33.185-42.667s14.857-42.667 33.185-42.667h530.962c18.33 0 33.186 19.102 33.186 42.667z" />
<glyph unicode="&#xe90d;" glyph-name="expand" d="M856.179 823.795c15.087 0 29.555-6.339 40.226-17.623 10.667-11.284 16.661-26.589 16.661-42.547v-673.913c0-15.962-5.995-31.266-16.661-42.547-10.671-11.285-25.139-17.626-40.226-17.626h-182.046c-18.85 0-34.133-16.162-34.133-36.1 0-19.942 15.283-36.105 34.133-36.105h182.046c33.19 0 65.024 13.948 88.495 38.771 23.475 24.828 36.659 58.496 36.659 93.606v673.913c0 35.108-13.184 68.779-36.659 93.604-23.471 24.825-55.305 38.772-88.495 38.772h-182.046c-18.85 0-34.133-16.164-34.133-36.102s15.283-36.103 34.133-36.103h182.046zM394.094 672.887c13.458 13.040 35.278 13.040 48.735 0l229.743-222.608c13.461-13.039 13.461-34.185 0-47.223l-229.743-222.609c-13.457-13.039-35.277-13.039-48.735 0s-13.458 34.185 0 47.223l205.377 198.997-205.377 198.997c-13.458 13.040-13.458 34.182 0 47.223zM42.667 426.667c0 23.565 14.857 42.667 33.185 42.667h530.962c18.33 0 33.186-19.102 33.186-42.667s-14.857-42.667-33.186-42.667h-530.962c-18.328 0-33.185 19.102-33.185 42.667z" />
<glyph unicode="&#xe90e;" glyph-name="ticket" d="M42.667 866.043c0 16.545 13.412 29.958 29.958 29.958h458.362c7.945 0 15.565-3.157 21.184-8.777l393.796-393.898c22.652-22.793 35.366-53.628 35.366-85.764s-12.715-62.967-35.366-85.764l-0.064-0.060-328.631-328.721c-0.004-0.004 0.004 0.004 0 0-11.294-11.307-24.717-20.288-39.475-26.406-14.767-6.123-30.596-9.276-46.583-9.276-15.983 0-31.812 3.153-46.579 9.276-14.754 6.118-28.16 15.083-39.45 26.381zM445.184-7.010l-393.734 393.378c-5.624 5.619-8.784 13.244-8.784 21.193v458.482zM102.582 836.085v-416.108l384.949-384.602c5.73-5.739 12.561-10.317 20.053-13.423s15.522-4.702 23.629-4.702c8.111 0 16.141 1.596 23.633 4.702s14.298 7.659 20.028 13.402l328.597 328.678c0.009 0.009-0.009-0.009 0 0 11.477 11.563 17.946 27.23 17.946 43.529 0 16.303-6.443 31.94-17.92 43.503-0.009 0.009 0.009-0.009 0 0l-384.922 385.021h-415.993zM298.667 682.667c0-23.564-19.103-42.667-42.667-42.667s-42.667 19.103-42.667 42.667c0 23.564 19.103 42.667 42.667 42.667s42.667-19.103 42.667-42.667z" />
<glyph unicode="&#xe90f;" glyph-name="reports" d="M153.262 881.405c23.005 23.005 54.205 35.928 86.738 35.928h362.667c8.486 0 16.627-3.371 22.626-9.373l272-272c6.003-6.001 9.374-14.141 9.374-22.627v-544c0-32.533-12.924-63.735-35.93-86.737-23.002-23.006-54.204-35.93-86.737-35.93h-544c-32.533 0-63.734 12.924-86.738 35.93-23.005 23.002-35.928 54.204-35.928 86.737v725.333c0 32.533 12.924 63.734 35.928 86.738zM240 853.334c-15.559 0-30.481-6.181-41.484-17.183s-17.183-25.924-17.183-41.484v-725.333c0-15.561 6.181-30.481 17.183-41.485 11.002-10.999 25.924-17.182 41.484-17.182h544c15.561 0 30.481 6.182 41.485 17.182 10.999 11.004 17.182 25.924 17.182 41.485v530.745l-253.257 253.255h-349.41zM602.876 917.334c17.673 0 32-14.327 32-32v-240h240c17.673 0 32-14.327 32-32s-14.327-32-32-32h-272c-17.673 0-32 14.327-32 32v272c0 17.673 14.327 32 32 32zM298.667 386.56c0 17.673 14.327 32 32 32h362.667c17.673 0 32-14.327 32-32s-14.327-32-32-32h-362.667c-17.673 0-32 14.327-32 32zM298.667 204.374c0 17.673 14.327 32 32 32h362.667c17.673 0 32-14.327 32-32s-14.327-32-32-32h-362.667c-17.673 0-32 14.327-32 32zM298.667 557.227c0 17.673 14.327 32 32 32h90.667c17.673 0 32-14.327 32-32s-14.327-32-32-32h-90.667c-17.673 0-32 14.327-32 32z" />
<glyph unicode="&#xe910;" glyph-name="customer" d="M97.417 295.996c35.056 42.688 82.603 66.671 132.18 66.671h266.138c49.579 0 97.122-23.983 132.181-66.671 35.055-42.688 54.75-100.587 54.75-160.96v-92.595c0-23.441-15.603-42.441-34.85-42.441-19.251 0-34.854 18.999-34.854 42.441v92.595c0 37.858-12.348 74.167-34.334 100.941-21.986 26.769-51.802 41.809-82.893 41.809h-266.138c-31.091 0-60.908-15.040-82.893-41.809-21.984-26.773-34.335-63.083-34.335-100.941v-92.595c0-23.441-15.603-42.441-34.851-42.441s-34.851 18.999-34.851 42.441v92.595c0 60.373 19.695 118.272 54.751 160.96zM384 773.786c-73.888 0-133.785-59.898-133.785-133.785s59.898-133.786 133.785-133.786c73.886 0 133.786 59.898 133.786 133.786s-59.9 133.785-133.786 133.785zM170.667 640c0 117.821 95.513 213.333 213.333 213.333s213.333-95.513 213.333-213.333c0-117.821-95.514-213.333-213.333-213.333s-213.333 95.513-213.333 213.333zM853.333 554.667c11.78 0 21.333-13.412 21.333-29.958v-196.086c0-16.542-9.553-29.956-21.333-29.956s-21.333 13.414-21.333 29.956v196.086c0 16.545 9.553 29.958 21.333 29.958zM725.333 426.667c0 11.78 13.414 21.333 29.956 21.333h196.087c16.542 0 29.956-9.553 29.956-21.333s-13.414-21.333-29.956-21.333h-196.087c-16.542 0-29.956 9.553-29.956 21.333z" />
<glyph unicode="&#xe911;" glyph-name="purchase" d="M223.18 882.903c6.198 8.245 15.926 13.098 26.256 13.098h525.126c10.334 0 20.062-4.852 26.257-13.098l131.285-174.636c4.258-5.668 6.562-12.561 6.562-19.647v-611.223c0-31.846-12.681-62.383-35.247-84.898-22.571-22.515-53.18-35.166-85.094-35.166h-612.65c-31.916 0-62.526 12.651-85.094 35.166s-35.247 53.052-35.247 84.898v611.223c0 7.085 2.303 13.979 6.564 19.647l131.282 174.636zM265.846 830.512l-114.872-152.806v-600.308c0-14.477 5.763-28.356 16.022-38.592s24.172-15.983 38.679-15.983h612.65c14.507 0 28.42 5.747 38.677 15.983 10.261 10.236 16.021 24.115 16.021 38.592v600.308l-114.871 152.806h-492.306zM85.333 682.667c0 23.564 14.694 42.667 32.82 42.667h787.694c18.125 0 32.819-19.103 32.819-42.667s-14.694-42.667-32.819-42.667h-787.694c-18.126 0-32.82 19.103-32.82 42.667zM332.351 554.667c18.604 0 33.684-15.629 33.684-34.909 0-40.12 15.378-78.597 42.752-106.966s64.501-44.305 103.213-44.305c38.711 0 75.84 15.936 103.211 44.305 27.375 28.369 42.756 66.846 42.756 106.966 0 19.28 15.078 34.909 33.681 34.909s33.685-15.629 33.685-34.909c0-58.638-22.477-114.872-62.485-156.336-40.004-41.463-94.268-64.755-150.848-64.755s-110.842 23.292-150.849 64.755c-40.008 41.463-62.484 97.698-62.484 156.336 0 19.28 15.081 34.909 33.684 34.909z" />
<glyph unicode="&#xe912;" glyph-name="sales" d="M968.836 691.415c16.661-16.78 16.661-43.985 0-60.765l-368.486-371.079c-16.661-16.781-43.674-16.781-60.339 0l-163.768 164.924-260.739-262.575c-16.663-16.781-43.677-16.781-60.34 0-16.662 16.777-16.662 43.985 0 60.762l290.909 292.959c16.662 16.78 43.677 16.78 60.34 0l163.768-164.925 338.317 340.699c16.661 16.78 43.678 16.78 60.339 0zM682.667 658.212c0 25.289 17.937 45.789 40.064 45.789h218.539c22.127 0 40.064-20.5 40.064-45.789v-249.755c0-25.289-17.937-45.79-40.064-45.79s-40.064 20.501-40.064 45.79v203.966h-178.475c-22.127 0-40.064 20.5-40.064 45.789z" />
<glyph unicode="&#xe913;" glyph-name="items" d="M451.895 879.951c18.278 10.514 39.006 16.049 60.105 16.049s41.822-5.534 60.1-16.048c0.026-0.014 0.047-0.027 0.073-0.041l306.321-174.669c18.278-10.529 33.459-25.669 44.019-43.901s16.132-38.914 16.154-59.973v-349.371c-0.021-21.060-5.594-41.775-16.154-60.006s-25.741-33.37-44.019-43.9l-0.124-0.073-306.197-174.596c-0.026-0.013-0.047-0.030-0.073-0.043-18.274-10.513-39.002-16.047-60.1-16.047s-41.826 5.534-60.105 16.051c-0.021 0.013-0.043 0.026-0.068 0.038l-306.323 174.669c-18.276 10.53-33.456 25.668-44.017 43.9s-16.132 38.916-16.154 59.972v349.372c0.022 21.059 5.592 41.775 16.154 60.006s25.741 33.372 44.017 43.901l0.126 0.073 306.265 174.636zM512 830.499c-9.6 0-19.034-2.522-27.349-7.313l-306.326-174.67c-0.018-0.010-0.036-0.020-0.054-0.031-8.283-4.785-15.164-11.655-19.954-19.924-4.798-8.282-7.33-17.678-7.343-27.245v-349.303c0.013-9.566 2.545-18.961 7.343-27.243 4.79-8.269 11.669-15.138 19.952-19.925 0.019-0.009 0.038-0.021 0.056-0.030l306.326-174.669c8.316-4.791 17.749-7.313 27.349-7.313s19.034 2.522 27.349 7.313l306.325 174.669c0.021 0.009 0.038 0.021 0.055 0.030 8.286 4.787 15.164 11.657 19.951 19.925 4.804 8.286 7.334 17.685 7.343 27.26v349.27c-0.009 9.572-2.539 18.973-7.343 27.26-4.787 8.269-11.669 15.139-19.951 19.924-0.017 0.011-0.038 0.021-0.055 0.031l-306.325 174.669c-8.316 4.791-17.749 7.313-27.349 7.313zM132.315 665.587c8.868 16.349 28.484 21.935 43.814 12.478l357.204-220.358 357.205 220.358c15.33 9.457 34.944 3.87 43.814-12.478 8.866-16.349 3.627-37.268-11.703-46.726l-373.261-230.266c-9.933-6.127-22.178-6.127-32.111 0l-373.262 230.266c-15.33 9.457-20.569 30.377-11.701 46.726zM512 469.334c23.565 0 42.667-14.848 42.667-33.161v-445.679c0-18.313-19.102-33.161-42.667-33.161s-42.667 14.848-42.667 33.161v445.679c0 18.313 19.102 33.161 42.667 33.161z" />
<glyph unicode="&#xe914;" glyph-name="dashboard" d="M388.739 811.984v-258.634h-265.479v230.629c0 15.467 12.028 28.005 26.865 28.005h238.614zM150.125 896c-59.348 0-107.459-50.154-107.459-112.021v-314.645h426.667v426.667h-319.208zM635.26 811.984v-258.634h265.481v230.629c0 15.467-12.028 28.005-26.867 28.005h-238.613zM873.873 896c59.349 0 107.46-50.154 107.46-112.021v-314.645h-426.667v426.667h319.206zM635.26 41.349v258.637h265.481v-230.63c0-15.467-12.028-28.006-26.867-28.006h-238.613zM873.873-42.666c59.349 0 107.46 50.155 107.46 112.021v314.645h-426.667v-426.667h319.206zM388.739 41.349v258.637h-265.479v-230.63c0-15.467 12.028-28.006 26.865-28.006h238.614zM150.125-42.666c-59.348 0-107.459 50.155-107.459 112.021v314.645h426.667v-426.667h-319.208z" />
<glyph unicode="&#xe915;" glyph-name="correct" d="M401.309 263.697c-33.329-33.301-87.337-33.289-120.651 0.026l-124.593 124.595c-20.8 20.8-54.503 20.86-75.376 0.132v0c-20.977-20.83-21.037-54.737-0.134-75.644l200.075-200.073c33.325-33.327 87.355-33.327 120.68 0l542.392 542.393c20.783 20.783 20.783 54.478 0 75.261v0c-20.774 20.776-54.455 20.783-75.243 0.017l-467.15-466.708z" />
<glyph unicode="&#xe916;" glyph-name="dropup-outline" d="M572.339 664.994c-33.323 33.324-87.356 33.325-120.678 0l-353.817-353.817c-30.473-30.473-30.473-79.881 0-110.353v0c30.45-30.451 79.811-30.477 110.293-0.060l243.588 243.059c33.31 33.237 87.241 33.237 120.55 0l243.588-243.059c30.481-30.417 79.842-30.391 110.293 0.060v0c30.473 30.473 30.473 79.881 0 110.353l-353.818 353.817z" />
<glyph unicode="&#xe917;" glyph-name="chevron_right" d="M732.617 487.006c33.327-33.323 33.327-87.356 0-120.678l-353.815-353.818c-30.473-30.473-79.881-30.473-110.353 0v0c-30.45 30.451-30.477 79.812-0.060 110.293l243.057 243.588c33.237 33.31 33.237 87.241 0 120.55l-243.057 243.588c-30.416 30.483-30.389 79.843 0.061 110.293v0c30.473 30.473 79.88 30.473 110.353 0l353.815-353.818z" />
<glyph unicode="&#xe918;" glyph-name="chevron_left" d="M273.673 487.006c-33.324-33.323-33.325-87.356 0-120.678l353.817-353.818c30.473-30.473 79.881-30.473 110.353 0v0c30.451 30.451 30.477 79.812 0.060 110.293l-243.059 243.588c-33.237 33.31-33.237 87.241 0 120.55l243.059 243.588c30.417 30.483 30.391 79.843-0.060 110.293v0c-30.473 30.473-79.881 30.473-110.353 0l-353.817-353.818z" />
<glyph unicode="&#xe919;" glyph-name="more-vertical" d="M509.628-42.666c-57.6 0-104.294 46.694-104.294 104.294 0 57.604 46.694 104.299 104.294 104.299 57.604 0 104.299-46.694 104.299-104.299 0-57.6-46.694-104.294-104.299-104.294zM509.628 322.373c-57.6 0-104.294 46.694-104.294 104.294s46.694 104.296 104.294 104.296c57.604 0 104.299-46.696 104.299-104.296s-46.694-104.294-104.299-104.294zM509.628 687.408c-57.6 0-104.294 46.695-104.294 104.297s46.694 104.296 104.294 104.296c57.604 0 104.299-46.695 104.299-104.296s-46.694-104.297-104.299-104.297z" />
<glyph unicode="&#xe91a;" glyph-name="briefcase" d="M336.157 815.843c24.005 24.005 56.562 37.49 90.51 37.49h170.667c33.946 0 66.505-13.486 90.509-37.49s37.491-56.562 37.491-90.51v-42.667h128c70.694 0 128-57.308 128-128v-426.667c0-70.694-57.306-128-128-128h-682.667c-70.692 0-128 57.306-128 128v426.667c0 70.692 57.308 128 128 128h128v42.667c0 33.948 13.486 66.505 37.49 90.51zM298.667 597.334h-128c-23.564 0-42.667-19.103-42.667-42.667v-426.667c0-23.565 19.103-42.667 42.667-42.667h128v512zM384 85.334h256v512h-256v-512zM725.333 85.334h128c23.565 0 42.667 19.102 42.667 42.667v426.667c0 23.564-19.102 42.667-42.667 42.667h-128v-512zM640 682.667v42.667c0 11.316-4.497 22.168-12.497 30.17s-18.854 12.497-30.17 12.497h-170.667c-11.316 0-22.168-4.495-30.17-12.497s-12.497-18.854-12.497-30.17v-42.667h256z" />
<glyph unicode="&#xe91b;" glyph-name="more-horizontal" d="M42.667 429.039c0 57.6 46.695 104.294 104.296 104.294s104.297-46.694 104.297-104.294c0-57.604-46.695-104.299-104.297-104.299s-104.296 46.694-104.296 104.299zM407.704 429.039c0 57.6 46.696 104.294 104.296 104.294s104.294-46.694 104.294-104.294c0-57.604-46.694-104.299-104.294-104.299s-104.296 46.694-104.296 104.299zM772.74 429.039c0 57.6 46.694 104.294 104.299 104.294 57.6 0 104.294-46.694 104.294-104.294 0-57.604-46.694-104.299-104.294-104.299-57.604 0-104.299 46.694-104.299 104.299z" />
<glyph unicode="&#xe91c;" glyph-name="file-upload" d="M348.863 178.198h331.295v331.294h220.86l-386.509 386.509-386.509-386.509h220.863v-331.294zM128 67.764h773.018v-110.43h-773.018v110.43z" />
<glyph unicode="&#xe91d;" glyph-name="close" d="M958.421 873.090c30.549-30.548 30.549-80.075 0-110.623l-782.221-782.221c-30.548-30.549-80.076-30.549-110.623 0-30.548 30.545-30.548 80.073 0 110.622l782.222 782.222c30.549 30.548 80.077 30.548 110.622 0zM65.577 873.090c30.548 30.548 80.075 30.548 110.623 0l782.221-782.222c30.549-30.549 30.549-80.077 0-110.622-30.545-30.549-80.073-30.549-110.622 0l-782.222 782.221c-30.548 30.548-30.548 80.076 0 110.623z" />
<glyph unicode="&#xe91e;" glyph-name="external-link" d="M188.775 627.101c-11.25 0-22.039-4.234-29.995-11.77s-12.424-17.758-12.424-28.416v-491.162c0-10.658 4.469-20.881 12.424-28.416s18.744-11.772 29.995-11.772h518.45c11.251 0 22.037 4.237 29.995 11.772 7.953 7.535 12.425 17.758 12.425 28.416v267.908c0 27.123 23.211 49.114 51.844 49.114s51.844-21.99 51.844-49.114v-267.908c0-36.71-15.394-71.919-42.795-97.877s-64.563-40.542-103.313-40.542h-518.45c-38.75 0-75.914 14.583-103.314 40.542s-42.794 61.167-42.794 97.877v491.162c0 36.711 15.394 71.919 42.794 97.877s64.564 40.542 103.314 40.542h282.79c28.634 0 51.844-21.99 51.844-49.116s-23.211-49.117-51.844-49.117h-282.79zM597.333 844.488c0 28.45 23.061 51.512 51.511 51.512h280.977c28.45 0 51.511-23.063 51.511-51.512v-280.975c0-28.45-23.061-51.512-51.511-51.512s-51.511 23.063-51.511 51.512v229.463h-229.466c-28.45 0-51.511 23.063-51.511 51.512zM966.754 880.379c19.439-20.828 19.439-54.597 0-75.424l-497.779-533.334c-19.439-20.826-50.956-20.826-70.395 0-19.439 20.83-19.439 54.596 0 75.426l497.779 533.332c19.439 20.828 50.957 20.828 70.396 0z" />
<glyph unicode="&#xe91f;" glyph-name="dropdown-outline" d="M926.157 670.217c-30.451 30.45-79.812 30.477-110.293 0.060l-243.588-243.060c-33.31-33.237-87.241-33.237-120.55 0l-243.588 243.060c-30.483 30.416-79.843 30.389-110.293-0.061v0c-30.473-30.473-30.473-79.88 0-110.353l353.818-353.818c33.323-33.323 87.356-33.323 120.678 0l353.818 353.817c30.473 30.473 30.473 79.881 0 110.353v0z" />
<glyph unicode="&#xe920;" glyph-name="help_outline" d="M465.067 192c0-25.92 21.013-46.933 46.933-46.933v0c25.92 0 46.933 21.013 46.933 46.933v0c0 25.92-21.013 46.933-46.933 46.933v0c-25.92 0-46.933-21.013-46.933-46.933v0zM512 896c-259.072 0-469.333-210.261-469.333-469.333s210.261-469.333 469.333-469.333c259.072 0 469.333 210.261 469.333 469.333s-210.261 469.333-469.333 469.333zM512 51.2c-206.976 0-375.467 168.491-375.467 375.467s168.491 375.467 375.467 375.467c206.976 0 375.467-168.491 375.467-375.467s-168.491-375.467-375.467-375.467zM512 708.267c-87.686 0-161.284-60.041-181.946-141.274-6.39-25.12 15.226-46.459 41.146-46.459v0c25.92 0 45.992 22.273 58.487 44.982 16 29.072 46.955 48.884 82.313 48.884 51.627 0 93.867-42.24 93.867-93.867 0-83.046-110.212-83.435-135.62-188.058-6.114-25.186 15.834-46.609 41.754-46.609v0c25.92 0 45.845 22.080 57.126 45.419 32.354 66.91 130.607 91.234 130.607 189.248 0 103.723-84.011 187.733-187.733 187.733z" />
<glyph unicode="&#xe921;" glyph-name="settings" d="M512 512c-47.13 0-85.333-38.204-85.333-85.333s38.204-85.333 85.333-85.333c47.13 0 85.333 38.204 85.333 85.333s-38.204 85.333-85.333 85.333zM341.333 426.667c0 94.257 76.41 170.667 170.667 170.667 94.255 0 170.667-76.41 170.667-170.667 0-94.255-76.412-170.667-170.667-170.667-94.257 0-170.667 76.412-170.667 170.667zM512 817.778c-10.372 0-20.322-4.121-27.657-11.456s-11.456-17.283-11.456-27.656v-6.805c-0.081-20.213-6.067-39.961-17.229-56.814s-27.008-30.074-45.585-38.036c-3.307-1.417-6.786-2.368-10.338-2.833-16.881-5.912-35.055-7.369-52.746-4.161-20.377 3.695-39.18 13.409-53.984 27.89l-0.308 0.302-2.345 2.348c-3.632 3.636-7.961 6.537-12.709 8.505s-9.838 2.982-14.977 2.982c-5.14 0-10.229-1.013-14.977-2.982s-9.062-4.853-12.694-8.489l-0.031-0.031c-3.636-3.633-6.521-7.946-8.489-12.694s-2.982-9.838-2.982-14.977c0-5.14 1.013-10.229 2.982-14.977s4.853-9.062 8.489-12.694l2.667-2.667c14.481-14.804 24.194-33.609 27.888-53.986 3.621-19.971 1.297-40.557-6.669-59.205-7.258-19.032-19.965-35.51-36.546-47.367-16.916-12.1-37.080-18.829-57.871-19.315l-0.915-0.013h-3.52c-10.373 0-20.321-4.117-27.656-11.456-7.335-7.334-11.456-17.28-11.456-27.652s4.121-20.322 11.456-27.657c7.335-7.334 17.283-11.456 27.656-11.456h6.805c20.213-0.081 39.961-6.071 56.814-17.229 16.794-11.123 29.982-26.897 37.953-45.393 8.294-18.897 10.76-39.838 7.077-60.147-3.695-20.378-13.409-39.181-27.89-53.986l-0.302-0.307-2.348-2.342c-3.636-3.635-6.537-7.962-8.505-12.71s-2.982-9.839-2.982-14.98c0-5.137 1.013-10.227 2.982-14.976s4.853-9.062 8.489-12.693l0.031-0.030c3.632-3.635 7.946-6.524 12.694-8.491s9.838-2.982 14.977-2.982c5.14 0 10.229 1.015 14.977 2.982s9.062 4.855 12.694 8.491l2.667 2.667c14.804 14.481 33.609 24.192 53.986 27.887 19.971 3.622 40.556 1.297 59.205-6.669 19.028-7.258 35.51-19.964 47.367-36.544 12.1-16.917 18.829-37.082 19.315-57.873l0.013-0.913v-3.52c0-10.372 4.117-20.322 11.456-27.657 7.334-7.334 17.28-11.456 27.652-11.456s20.322 4.122 27.657 11.456c7.334 7.334 11.456 17.284 11.456 27.657v6.805c0.081 20.211 6.071 39.962 17.229 56.815 11.123 16.794 26.901 29.982 45.397 37.952 18.897 8.294 39.838 10.761 60.143 7.078 20.378-3.695 39.181-13.41 53.986-27.891l0.307-0.303 2.342-2.347c3.635-3.635 7.962-6.537 12.71-8.508 4.749-1.967 9.839-2.978 14.98-2.978 5.137 0 10.227 1.011 14.976 2.978 4.749 1.971 9.062 4.855 12.693 8.491l0.030 0.030c3.635 3.635 6.524 7.949 8.491 12.698 1.967 4.745 2.982 9.835 2.982 14.976 0 5.137-1.015 10.227-2.982 14.976s-4.855 9.062-8.491 12.693l-2.667 2.667c-14.481 14.805-24.192 33.609-27.887 53.986-3.682 20.309-1.22 41.25 7.074 60.143 7.97 18.5 21.158 34.274 37.956 45.397 16.853 11.162 36.599 17.148 56.811 17.229h3.678c10.372 0 20.322 4.122 27.657 11.456s11.456 17.284 11.456 27.657c0 10.372-4.122 20.322-11.456 27.657s-17.284 11.456-27.657 11.456h-6.805c-20.211 0.081-39.962 6.067-56.815 17.229-16.849 11.162-30.071 27.008-38.033 45.585-1.421 3.307-2.372 6.786-2.833 10.338-5.914 16.882-7.369 35.055-4.164 52.746 3.695 20.377 13.41 39.18 27.891 53.984l0.303 0.308 2.347 2.345c3.635 3.632 6.537 7.961 8.508 12.709 1.967 4.748 2.978 9.838 2.978 14.977s-1.011 10.229-2.978 14.977c-1.971 4.748-4.855 9.062-8.491 12.694l-0.030 0.031c-3.635 3.636-7.949 6.521-12.698 8.489-4.745 1.968-9.835 2.982-14.976 2.982-5.137 0-10.227-1.013-14.976-2.982s-9.062-4.853-12.693-8.489l-2.667-2.667c-14.805-14.481-33.609-24.194-53.986-27.888-20.309-3.682-41.254-1.217-60.147 7.077-18.496 7.971-34.27 21.159-45.393 37.953-11.162 16.852-17.148 36.601-17.229 56.814v3.676c0 10.373-4.122 20.321-11.456 27.656s-17.284 11.456-27.657 11.456zM429.035 861.634c22.003 22.004 51.849 34.366 82.965 34.366s60.962-12.362 82.965-34.366c22.007-22.004 34.368-51.848 34.368-82.967v-3.422c0.030-4.937 1.498-9.76 4.224-13.877 2.739-4.134 6.626-7.377 11.183-9.329l0.384-0.165c4.651-2.051 9.805-2.665 14.801-1.759 4.945 0.896 9.51 3.237 13.12 6.725l2.146 2.144c10.897 10.909 23.838 19.564 38.080 25.469 14.246 5.905 29.513 8.944 44.932 8.944s30.69-3.039 44.932-8.944c14.242-5.905 27.183-14.559 38.080-25.469 10.897-10.891 19.541-23.82 25.438-38.051 5.905-14.244 8.947-29.513 8.947-44.932s-3.042-30.688-8.947-44.932c-5.901-14.237-14.549-27.172-25.451-38.066-0.004-0.005 0.004 0.005 0 0l-2.159-2.159c-3.49-3.613-5.828-8.178-6.724-13.122-0.909-4.998-0.294-10.153 1.754-14.8 1.105-2.505 1.941-5.111 2.5-7.776 1.852-2.727 4.224-5.081 6.997-6.918 4.117-2.727 8.939-4.195 13.879-4.226h6.549c31.117 0 60.962-12.362 82.965-34.368 22.007-22.003 34.368-51.849 34.368-82.965s-12.361-60.962-34.368-82.965c-22.003-22.007-51.849-34.368-82.965-34.368h-3.422c-4.937-0.030-9.762-1.498-13.879-4.224-4.13-2.739-7.373-6.626-9.327-11.183l-0.166-0.384c-2.052-4.651-2.667-9.805-1.758-14.801 0.896-4.945 3.238-9.51 6.724-13.12l2.146-2.146c0.004-0.004-0.009 0.004 0 0 10.901-10.893 19.563-23.842 25.468-38.080 5.905-14.246 8.943-29.513 8.943-44.932s-3.038-30.69-8.943-44.932c-5.905-14.242-14.562-27.183-25.468-38.080l0.030 0.030c-10.897-10.91-23.838-19.563-38.084-25.468-14.242-5.905-29.513-8.947-44.928-8.947-15.42 0-30.69 3.042-44.932 8.947-14.238 5.901-27.174 14.549-38.067 25.451-0.004 0.004 0.004-0.004 0 0l-2.159 2.159c-3.614 3.49-8.179 5.828-13.124 6.724-4.996 0.909-10.15 0.294-14.797-1.754l-0.384-0.171c-4.557-1.954-8.448-5.193-11.183-9.327-2.726-4.117-4.194-8.939-4.228-13.879v-6.549c0-31.117-12.361-60.962-34.364-82.965-22.003-22.007-51.849-34.368-82.97-34.368-31.117 0-60.962 12.361-82.965 34.368-22.004 22.003-34.367 51.849-34.367 82.965v2.957c-0.185 4.975-1.828 9.792-4.727 13.845-2.968 4.147-7.115 7.309-11.903 9.067-0.773 0.286-1.537 0.593-2.291 0.926-4.647 2.052-9.802 2.667-14.8 1.758-4.944-0.896-9.51-3.238-13.123-6.724l-2.143-2.146c-0.005-0.004 0.005 0.009 0 0-10.894-10.901-23.844-19.563-38.082-25.468-14.244-5.905-29.512-8.943-44.932-8.943s-30.688 3.038-44.931 8.943c-14.231 5.901-27.16 14.545-38.051 25.438-10.909 10.897-19.564 23.838-25.468 38.084-5.905 14.242-8.944 29.513-8.944 44.928 0 15.42 3.039 30.69 8.944 44.932 5.905 14.246 14.559 27.187 25.468 38.084l2.144 2.142c3.488 3.614 5.829 8.179 6.725 13.124 0.906 4.996 0.295 10.15-1.756 14.797l-0.169 0.384c-1.953 4.557-5.194 8.448-9.328 11.183-4.117 2.726-8.94 4.194-13.877 4.228h-6.551c-31.119 0-60.963 12.361-82.967 34.364s-34.366 51.849-34.366 82.97c0 31.117 12.362 60.962 34.366 82.965s51.848 34.367 82.967 34.367h2.958c4.975 0.185 9.789 1.828 13.842 4.727 4.149 2.968 7.309 7.115 9.070 11.903 0.285 0.773 0.593 1.537 0.926 2.291 2.051 4.647 2.663 9.802 1.757 14.8-0.896 4.943-3.237 9.51-6.725 13.122l-2.144 2.144c-10.909 10.897-19.564 23.838-25.469 38.082s-8.944 29.512-8.944 44.932c0 15.419 3.039 30.688 8.944 44.931 5.902 14.237 14.551 27.173 25.453 38.066 10.894 10.902 23.829 19.551 38.066 25.453 14.244 5.905 29.513 8.944 44.932 8.944s30.688-3.039 44.932-8.944c14.244-5.905 27.184-14.559 38.082-25.468l2.144-2.144c3.613-3.488 8.178-5.829 13.122-6.725 4.998-0.906 10.153-0.295 14.8 1.756 2.505 1.105 5.111 1.942 7.777 2.5 2.727 1.851 5.081 4.224 6.918 6.997 2.727 4.117 4.195 8.94 4.226 13.877v6.551c0 31.119 12.362 60.963 34.368 82.967z" />
<glyph unicode="&#xe922;" glyph-name="arrow-back" d="M384 128l60.16 60.16-195.413 195.84h689.92v85.333h-689.92l195.84 195.84-60.587 60.16-298.667-298.667 298.667-298.667z" />
<glyph unicode="&#xe923;" glyph-name="visibility_off" d="M512 683.734c161.707 0 305.92-90.88 376.32-234.667-25.173-52.053-60.587-96.853-102.827-133.12l60.16-60.16c59.307 52.48 106.24 118.187 135.68 193.28-73.813 187.307-256 320-469.333 320-54.187 0-106.24-8.533-155.307-24.32l70.4-70.4c27.733 5.547 55.893 9.387 84.907 9.387zM466.347 635.094l88.32-88.32c24.32-10.667 43.947-30.293 54.613-54.614l88.32-88.32c3.413 14.507 5.973 29.867 5.973 45.653 0.427 105.814-85.76 191.574-191.573 191.574-15.787 0-30.72-2.133-45.653-5.973zM85.76 774.614l114.347-114.347c-69.547-54.613-124.587-127.147-157.44-211.2 73.813-187.307 256-320 469.333-320 64.853 0 127.147 12.373 184.32 34.987l145.92-145.92 60.16 60.16-756.48 756.907-60.16-60.587zM405.76 454.614l111.36-111.36c-1.707-0.427-3.413-0.853-5.12-0.853-58.88 0-106.667 47.787-106.667 106.667 0 2.133 0.427 3.413 0.427 5.547zM260.693 599.681l74.667-74.667c-9.813-23.467-15.36-49.067-15.36-75.947 0-105.813 86.187-192 192-192 26.88 0 52.48 5.547 75.52 15.36l41.813-41.813c-37.547-10.24-76.8-16.213-117.333-16.213-161.707 0-305.92 90.88-376.32 234.667 29.867 61.013 73.387 111.36 125.013 150.614z" />
<glyph unicode="&#xe924;" glyph-name="visibility" d="M512 661.334c161.707 0 305.92-90.88 376.32-234.667-70.4-143.787-214.613-234.667-376.32-234.667s-305.92 90.88-376.32 234.667c70.4 143.787 214.613 234.667 376.32 234.667zM512 746.667c-213.333 0-395.52-132.693-469.333-320 73.813-187.307 256-320 469.333-320s395.52 132.693 469.333 320c-73.813 187.307-256 320-469.333 320zM512 533.334c58.88 0 106.667-47.787 106.667-106.667s-47.787-106.667-106.667-106.667c-58.88 0-106.667 47.787-106.667 106.667s47.787 106.667 106.667 106.667zM512 618.667c-105.813 0-192-86.187-192-192s86.187-192 192-192c105.813 0 192 86.187 192 192s-86.187 192-192 192z" />
<glyph unicode="&#xe925;" glyph-name="office" d="M0-64h512v1024h-512v-1024zM320 832h128v-128h-128v128zM320 576h128v-128h-128v128zM320 320h128v-128h-128v128zM64 832h128v-128h-128v128zM64 576h128v-128h-128v128zM64 320h128v-128h-128v128zM576 640h448v-64h-448zM576-64h128v256h192v-256h128v576h-448z" />
</font>
</defs>
</svg>
